<?xml version="1.0" standalone="no"?>
<!DOCTYPE svg PUBLIC "-//W3C//DTD SVG 20010904//EN"
 "http://www.w3.org/TR/2001/REC-SVG-20010904/DTD/svg10.dtd">
<svg version="1.0" xmlns="http://www.w3.org/2000/svg"
 width="1264.000000pt" height="1280.000000pt" viewBox="0 0 1264.000000 1280.000000"
 preserveAspectRatio="xMidYMid meet">
<metadata>
Created by potrace 1.15, written by Peter Selinger 2001-2017
</metadata>
<g transform="translate(0.000000,1280.000000) scale(0.100000,-0.100000)"
fill="#000000" stroke="none">
<path d="M7595 12784 c-210 -46 -366 -186 -428 -386 -29 -94 -52 -227 -40
-239 4 -4 33 -10 63 -12 l55 -3 -62 -2 c-35 -1 -63 -3 -63 -4 0 -2 -3 -82 -6
-178 -2 -96 -9 -206 -14 -245 -33 -248 -33 -257 -21 -265 10 -5 9 -9 -2 -13
-9 -3 -18 -26 -22 -59 -3 -29 -15 -105 -26 -168 -10 -63 -21 -128 -24 -145 -4
-28 -10 -52 -48 -215 -11 -46 -12 -69 -5 -77 8 -10 6 -13 -6 -13 -9 0 -16 -6
-16 -14 0 -8 -23 -84 -51 -168 -28 -84 -52 -157 -53 -163 -1 -5 -26 -59 -55
-120 -29 -60 -54 -116 -54 -122 0 -7 -3 -13 -7 -13 -4 0 -29 -33 -55 -72 -74
-113 -136 -186 -244 -293 -74 -73 -98 -102 -90 -111 8 -9 5 -11 -10 -7 -20 5
-88 -45 -246 -181 -38 -34 -85 -74 -105 -91 -67 -57 -210 -208 -210 -221 0 -7
47 -54 105 -104 58 -50 105 -94 105 -97 0 -3 -30 21 -67 53 -171 148 -154 136
-175 117 -33 -30 -117 -148 -166 -235 -47 -81 -202 -424 -202 -446 0 -6 6 -13
13 -15 7 -3 5 -6 -5 -6 -21 -1 -29 -17 -103 -191 -32 -74 -89 -204 -127 -288
-52 -116 -67 -157 -58 -167 8 -10 7 -13 -5 -11 -11 1 -42 -55 -103 -179 -48
-99 -116 -233 -150 -297 -34 -64 -62 -124 -62 -132 0 -9 -4 -16 -9 -16 -5 0
-55 -75 -110 -167 -56 -93 -137 -217 -180 -278 l-79 -110 22 -25 21 -25 -23
20 -24 20 -30 -35 c-160 -185 -244 -262 -338 -311 -60 -31 -54 -30 -225 -32
-197 -3 -251 -23 -362 -137 -32 -32 -63 -92 -79 -155 -18 -65 -19 -306 -2
-323 9 -9 9 -12 0 -12 -17 0 -17 -1436 1 -1443 9 -4 9 -6 0 -6 -17 -1 -18
-698 -2 -718 8 -9 8 -13 0 -13 -8 0 -11 -101 -11 -355 1 -250 4 -355 12 -355
7 0 7 -4 -1 -13 -7 -10 -11 -122 -11 -365 l0 -352 305 0 304 0 -2 98 -2 97
-105 6 -105 5 107 2 107 2 0 95 0 95 -104 0 c-58 0 -105 3 -105 8 0 4 46 7
102 7 l103 0 3 44 c2 28 -1 47 -10 52 -10 7 -10 9 0 9 8 0 12 16 12 45 0 28
-4 45 -12 45 -9 0 -9 3 0 12 7 7 12 28 12 48 0 20 -5 41 -12 48 -9 9 -9 12 0
12 8 0 12 17 12 45 0 29 -4 45 -12 45 -10 0 -10 2 -1 8 8 5 11 50 10 152 l-2
145 -105 6 -105 5 107 2 107 2 0 100 0 99 -107 4 -107 3 108 2 107 2 0 45 c0
27 -5 45 -11 45 -8 0 -8 4 -1 13 15 17 14 190 -1 199 -9 6 -9 8 0 8 9 0 12 28
12 95 l0 95 -104 0 c-63 0 -105 4 -105 10 0 6 42 10 105 10 l105 0 0 45 c0 29
-4 45 -12 45 -10 0 -10 2 -1 8 7 5 12 41 12 104 l0 98 -292 3 -292 2 293 3
292 2 0 45 0 45 -107 2 -108 2 105 5 105 6 0 145 0 145 -105 5 -105 6 105 4
105 5 3 38 c2 21 -2 45 -9 53 -8 10 -8 14 0 14 6 0 11 18 11 45 l0 44 -107 4
-108 3 107 2 107 2 0 100 0 99 -107 4 -107 3 107 2 106 2 1 145 c0 169 8 159
-128 153 -45 -2 -81 0 -81 5 0 4 47 7 105 7 l105 0 0 45 c0 28 -4 45 -12 45
-9 0 -9 3 0 12 16 16 16 80 0 96 -9 9 -9 12 0 12 8 0 12 17 12 45 l0 45 -292
2 -293 2 322 5 c233 4 325 9 334 18 10 10 10 28 0 83 -7 39 -11 74 -8 76 3 3
11 -29 18 -70 6 -42 16 -79 21 -82 13 -8 118 25 124 39 2 7 -14 62 -36 121
-23 60 -39 110 -37 112 2 2 23 -48 47 -111 24 -63 49 -115 56 -115 27 0 104
40 104 55 0 8 -20 51 -45 96 -25 45 -43 84 -41 86 2 2 26 -37 52 -86 27 -50
52 -91 57 -91 17 0 97 52 97 64 0 6 -25 47 -56 89 -31 43 -54 80 -52 82 2 2
30 -34 63 -81 32 -46 61 -84 64 -84 13 0 171 142 171 153 0 7 -31 44 -70 82
-38 38 -67 71 -64 74 2 3 38 -28 79 -69 l75 -74 35 34 c19 19 35 38 35 44 0 5
-33 40 -72 79 l-73 69 75 -66 c41 -36 80 -66 86 -66 7 0 24 16 39 37 l28 36
-34 31 c-19 17 -53 47 -75 66 -56 49 -22 25 50 -35 45 -38 62 -46 74 -38 26
16 55 60 47 72 -3 6 -60 52 -126 102 -65 49 -119 92 -119 95 0 3 57 -38 126
-90 69 -53 129 -96 134 -96 5 0 21 16 37 36 l27 36 -34 30 c-34 29 -34 29 -3
9 17 -12 35 -21 40 -21 11 0 53 55 53 69 0 6 -20 24 -45 41 -25 17 -45 33 -45
36 0 3 21 -9 46 -27 52 -36 66 -33 93 17 9 16 28 45 44 65 15 20 27 41 27 47
0 6 -38 34 -85 63 -47 28 -85 55 -85 60 0 4 39 -16 87 -47 48 -30 91 -53 96
-51 5 1 19 19 31 39 21 37 21 37 1 53 -20 16 -20 16 2 5 20 -9 25 -6 47 27 23
33 24 39 10 54 -13 15 -13 16 8 12 19 -4 27 3 41 32 13 27 15 41 7 50 -9 11
-7 12 8 9 14 -4 23 4 36 34 10 22 15 45 12 51 -4 6 0 11 8 11 15 0 46 47 46
70 0 5 9 19 20 30 11 11 23 34 27 50 3 17 9 30 12 30 7 0 41 65 41 78 0 4 -40
28 -90 52 -49 24 -90 48 -90 52 0 5 41 -12 90 -37 50 -25 95 -43 101 -40 16
11 41 66 35 81 -3 8 -1 14 4 14 5 0 19 18 30 40 l20 40 -57 29 c-32 17 -54 30
-50 31 4 0 30 -11 57 -25 l50 -25 20 32 c11 18 19 41 16 51 -2 9 0 17 5 17 5
0 17 17 28 39 15 29 17 41 8 50 -8 8 -7 11 4 11 8 0 23 17 33 37 17 36 17 38
-1 51 -17 13 -17 14 3 8 18 -6 25 4 59 79 22 50 34 90 29 94 -5 5 -49 26 -98
47 -49 21 -85 39 -79 41 5 2 41 -10 79 -28 118 -53 112 -52 129 -19 21 41 19
57 -12 75 -16 9 -19 13 -8 10 50 -17 51 -17 67 23 11 29 13 43 5 51 -8 8 -7
11 4 11 17 0 53 66 44 81 -4 5 -2 9 3 9 17 0 41 73 30 88 -8 9 -6 12 6 12 17
0 50 66 40 81 -3 5 -1 9 4 9 9 0 72 133 72 151 0 5 -41 29 -91 55 -50 25 -89
48 -86 50 3 3 46 -16 96 -43 88 -47 90 -48 105 -28 8 11 16 25 16 32 0 7 11
24 25 39 14 15 23 34 20 41 -2 8 -1 12 4 9 13 -8 54 41 48 58 -4 9 -1 13 6 10
7 -2 24 7 37 21 l24 26 -75 77 -74 77 77 -74 77 -75 26 24 c14 13 25 28 25 34
0 6 -28 40 -62 76 l-63 65 65 -62 c36 -35 70 -63 75 -63 6 1 37 25 69 54 l60
54 -68 81 c-38 45 -66 84 -63 87 2 3 27 -23 55 -58 27 -35 59 -72 71 -82 22
-20 22 -20 52 10 l30 31 -27 34 -28 34 35 -32 34 -32 35 29 c31 25 33 30 20
46 -14 16 -14 16 7 3 21 -13 26 -11 58 21 l34 35 -116 135 c-65 74 -110 129
-101 122 10 -8 63 -67 120 -133 56 -65 105 -119 108 -119 3 0 21 16 40 35 l34
35 -29 32 c-80 89 -93 108 -33 46 36 -37 70 -68 75 -68 14 0 63 54 63 70 0 7
-33 44 -72 82 -40 38 -59 61 -43 50 17 -11 52 -43 80 -71 27 -28 52 -51 56
-51 8 0 139 151 139 160 0 4 -28 29 -61 56 -102 81 -104 84 -94 84 6 0 44 -27
85 -60 41 -33 80 -60 85 -60 6 0 23 18 38 40 l28 39 -83 62 c-46 33 -85 64
-88 67 -9 10 53 -30 115 -75 l60 -44 28 33 c33 39 34 60 5 83 -21 15 -21 15 6
-1 28 -16 30 -16 43 2 8 11 21 31 29 47 14 27 14 27 -32 55 -76 45 -84 56 -12
17 l67 -36 21 40 c11 22 20 45 20 50 0 6 -22 22 -50 36 -27 14 -50 28 -50 30
0 3 22 -6 50 -20 27 -14 54 -25 59 -25 16 0 50 83 39 96 -5 8 -2 13 9 16 10 3
24 22 31 44 8 21 23 59 33 83 11 24 18 49 16 56 -3 6 -46 27 -96 45 -50 18
-91 36 -91 40 0 4 41 -7 92 -26 51 -19 97 -33 103 -30 18 7 36 78 23 93 -8 10
-7 13 5 13 17 0 42 63 34 84 -3 8 -20 17 -37 21 -17 4 -29 9 -26 12 3 3 18 1
35 -5 37 -13 50 0 54 54 1 22 7 44 13 51 19 20 27 85 12 94 -10 7 -10 9 3 9
10 0 19 15 26 46 10 42 9 46 -11 54 l-21 9 22 0 c23 1 29 13 37 71 3 19 10 53
15 75 6 22 7 43 3 46 -4 4 -52 15 -107 24 -55 10 -94 20 -87 22 7 3 54 -3 104
-12 100 -18 108 -16 108 38 0 15 0 30 1 35 0 4 -10 10 -23 14 -22 6 -22 6 4 7
22 1 28 7 33 34 4 19 6 40 4 48 -1 8 0 21 4 29 13 34 16 80 6 86 -8 4 -7 9 2
15 9 5 14 27 14 59 0 27 3 50 6 50 4 0 9 18 11 41 3 34 0 43 -17 49 -19 8 -19
9 3 9 18 1 22 7 24 34 2 41 3 51 13 110 4 27 4 52 -1 57 -5 5 -53 12 -107 16
-53 4 -97 10 -97 13 0 3 47 4 105 3 l105 -4 0 51 0 50 -52 4 -53 3 53 2 52 2
0 45 c0 36 -4 45 -17 46 -14 0 -13 2 4 9 20 8 23 17 23 67 -1 32 1 67 3 78 4
23 44 36 70 23 10 -5 25 -8 35 -7 9 1 24 -1 32 -4 8 -3 44 -13 80 -22 78 -19
75 -22 110 99 14 47 28 86 31 86 4 0 -7 -45 -24 -100 -32 -105 -31 -117 13
-122 14 -2 27 -6 30 -9 14 -16 133 -68 142 -63 6 4 8 2 5 -3 -8 -13 40 -46 58
-40 7 3 12 -1 11 -11 0 -10 14 -24 34 -34 19 -10 32 -18 28 -18 -5 0 15 -23
44 -50 29 -28 56 -49 60 -48 4 2 39 32 78 67 39 35 73 61 76 58 3 -2 -28 -33
-68 -67 -40 -35 -74 -68 -75 -74 -4 -16 35 -59 47 -51 6 3 7 0 4 -9 -3 -9 5
-26 20 -41 14 -14 26 -31 26 -38 0 -21 31 -58 42 -51 7 5 8 2 4 -5 -9 -14 12
-71 26 -71 5 0 7 -3 4 -8 -6 -11 21 -72 33 -72 6 0 8 -6 5 -13 -3 -8 1 -27 7
-43 14 -33 13 -29 23 -71 4 -18 12 -33 17 -33 6 0 51 12 100 26 50 14 93 23
96 21 3 -3 -21 -13 -53 -22 -140 -39 -139 -38 -136 -65 1 -14 5 -32 9 -40 3
-8 5 -22 4 -31 -1 -9 4 -29 10 -45 7 -16 11 -44 10 -61 -2 -18 1 -38 5 -45 5
-7 7 -27 5 -45 -1 -18 1 -38 4 -44 4 -6 8 -70 9 -143 l1 -131 97 -6 c135 -8
137 -21 3 -17 l-110 3 -2 -45 c-1 -25 -5 -67 -9 -95 -4 -27 -8 -66 -9 -85 -2
-19 -8 -48 -14 -64 -7 -16 -11 -36 -10 -45 1 -9 -2 -25 -6 -36 -5 -11 -9 -35
-9 -52 0 -18 -3 -33 -8 -33 -4 0 -10 -17 -14 -37 -4 -21 -13 -53 -21 -72 -8
-18 -12 -39 -10 -45 3 -7 48 -25 101 -40 53 -16 96 -32 96 -37 0 -4 -35 4 -77
17 -129 40 -131 41 -143 8 -6 -16 -9 -36 -7 -46 3 -10 1 -18 -4 -18 -16 0 -37
-64 -26 -77 6 -9 5 -13 -5 -13 -16 0 -43 -64 -33 -80 3 -5 1 -10 -5 -10 -14 0
-43 -67 -35 -80 4 -6 2 -10 -3 -10 -12 0 -44 -69 -37 -81 4 -5 2 -9 -3 -9 -4
0 -25 -37 -46 -81 -31 -65 -36 -83 -25 -90 8 -5 51 -25 96 -46 46 -21 83 -41
83 -45 0 -7 -79 26 -151 62 -21 11 -41 20 -43 20 -3 0 -14 -17 -25 -39 -16
-30 -17 -41 -8 -51 9 -10 9 -11 0 -6 -12 7 -53 -47 -53 -70 0 -6 27 -23 60
-39 33 -16 58 -30 56 -32 -2 -3 -27 7 -55 21 -28 14 -55 26 -60 26 -6 0 -18
-14 -27 -32 -12 -24 -14 -36 -6 -49 9 -14 8 -16 -6 -12 -25 6 -58 -63 -41 -83
10 -12 9 -13 -4 -8 -22 8 -61 -68 -44 -85 8 -8 7 -11 -7 -11 -10 0 -23 -14
-32 -37 -8 -21 -24 -54 -34 -74 -26 -48 -25 -67 3 -78 66 -26 159 -72 155 -77
-3 -2 -47 14 -98 36 -51 22 -94 39 -95 38 -1 -2 -10 -17 -19 -35 -17 -34 -21
-59 -8 -66 4 -2 1 -2 -5 -1 -13 3 -43 -55 -43 -82 0 -8 15 -21 33 -29 22 -10
24 -13 7 -9 -14 4 -31 9 -38 11 -15 6 -45 -63 -39 -88 3 -10 -1 -20 -7 -22
-14 -6 -40 -83 -32 -96 3 -5 22 -12 42 -16 20 -3 34 -9 31 -11 -3 -3 -21 -1
-41 4 -41 12 -49 4 -61 -61 -5 -27 -4 -37 6 -37 8 0 6 -5 -5 -13 -13 -10 -19
-29 -21 -65 -2 -28 -5 -54 -8 -59 -5 -8 -10 -82 -8 -110 1 -10 29 -13 106 -13
58 0 105 -4 105 -8 0 -5 -45 -12 -100 -15 -55 -3 -106 -9 -112 -13 -10 -6 -4
-161 7 -173 3 -2 50 12 105 32 55 20 100 33 100 29 0 -4 -44 -23 -98 -42 -89
-32 -97 -37 -100 -63 -4 -30 24 -123 39 -132 5 -4 47 21 94 54 47 34 85 58 85
53 0 -4 -17 -18 -37 -32 -20 -14 -59 -42 -85 -63 -43 -33 -47 -40 -37 -58 19
-36 82 -100 94 -97 7 2 56 56 109 121 54 64 99 117 102 117 2 0 -38 -54 -91
-120 -52 -66 -95 -126 -95 -133 0 -21 118 -71 134 -58 8 7 33 54 57 106 23 52
44 93 47 91 2 -3 -15 -46 -37 -97 -23 -51 -39 -99 -37 -106 7 -16 161 -18 171
-3 4 6 11 53 18 105 6 52 13 95 16 95 3 0 2 -45 -3 -100 -5 -55 -7 -103 -3
-106 3 -3 56 -3 118 1 l112 7 -6 104 c-3 58 -1 104 4 104 5 0 9 -42 9 -92 0
-51 4 -99 9 -107 7 -11 23 -12 72 -7 35 4 99 7 141 7 l77 0 4 77 3 77 2 -77 2
-77 92 0 c51 1 97 3 102 6 4 3 53 5 107 4 l99 -2 2 108 2 108 5 -105 6 -105
38 -3 c21 -2 45 2 53 9 11 9 14 9 14 0 0 -8 15 -11 43 -9 l42 3 5 105 6 105 4
-105 5 -105 33 -3 c18 -2 39 2 47 8 9 8 15 8 20 0 9 -14 68 -13 83 2 9 9 15 9
24 0 13 -13 47 -16 72 -6 13 5 16 26 18 113 l2 106 5 -110 6 -110 90 0 90 0 5
110 6 110 4 -110 5 -110 43 -3 c29 -2 42 1 42 9 0 10 3 10 12 1 19 -19 86 -15
91 6 4 15 5 15 6 1 1 -12 13 -18 41 -21 22 -2 44 0 49 5 5 5 12 4 15 -2 9 -15
86 -14 86 0 0 8 4 8 13 1 17 -13 77 -21 83 -10 3 5 11 5 17 0 7 -5 51 -13 99
-17 l86 -7 7 89 c4 48 11 97 16 108 11 27 11 8 -1 -100 -10 -101 -9 -105 55
-106 70 -1 129 -7 148 -14 9 -4 33 -5 52 -3 19 2 36 0 37 -4 2 -4 21 -9 43
-12 62 -6 170 -32 190 -47 6 -3 20 -10 32 -13 20 -6 27 3 72 91 28 54 50 94
50 89 1 -6 -20 -50 -45 -99 l-47 -90 24 -18 c13 -10 25 -16 27 -14 2 1 15 -8
29 -21 15 -14 33 -22 40 -19 8 2 12 1 9 -4 -3 -4 6 -19 19 -31 l25 -24 33 30
32 29 -29 -32 -30 -33 24 -25 c13 -14 30 -23 38 -20 7 2 10 0 7 -5 -11 -17 27
-62 47 -57 15 4 17 2 8 -8 -8 -9 -2 -23 24 -56 19 -24 43 -54 53 -67 l18 -23
88 61 c48 34 87 57 87 53 0 -4 -38 -34 -85 -66 l-86 -59 20 -31 c12 -18 28
-31 37 -30 11 1 13 -2 5 -10 -13 -13 16 -67 37 -67 7 0 10 -5 7 -10 -3 -6 2
-27 13 -48 11 -20 25 -49 31 -64 6 -16 15 -28 20 -28 6 0 8 -6 5 -14 -3 -8 0
-24 6 -36 6 -11 12 -43 12 -70 1 -28 6 -50 12 -50 8 0 8 -2 0 -8 -6 -4 -14
-20 -18 -36 -4 -17 -16 -42 -27 -58 -11 -15 -17 -33 -13 -39 4 -7 3 -9 -4 -5
-6 3 -22 -8 -36 -26 -24 -31 -24 -33 -8 -53 16 -19 16 -19 -2 -5 -17 13 -21
11 -47 -18 -16 -18 -29 -37 -29 -42 0 -5 36 -37 80 -70 44 -33 80 -63 80 -66
0 -3 -36 22 -79 56 -44 33 -84 60 -90 60 -12 0 -61 -62 -61 -78 0 -6 -4 -12
-9 -14 -16 -6 -62 -90 -57 -104 3 -8 44 -33 91 -56 47 -23 85 -46 85 -50 0 -7
-78 25 -151 62 l-38 20 -15 -22 c-26 -41 -49 -137 -37 -152 7 -8 45 -16 94
-21 46 -3 90 -11 98 -16 10 -8 4 -9 -21 -5 -19 3 -67 8 -106 12 -68 6 -71 5
-77 -16 -9 -36 4 -151 18 -157 11 -4 122 15 190 33 15 4 17 3 5 -4 -8 -5 -53
-18 -98 -27 -51 -11 -86 -24 -89 -33 -7 -16 23 -118 36 -127 5 -3 60 17 122
45 62 27 114 48 116 47 2 -2 -45 -25 -104 -52 -60 -27 -112 -52 -117 -56 -10
-9 6 -53 33 -87 l17 -24 52 31 c70 41 112 62 112 57 0 -3 -34 -23 -75 -46 -41
-23 -77 -45 -80 -50 -7 -12 34 -80 49 -80 6 0 20 6 31 13 38 26 115 69 115 64
0 -3 -32 -23 -70 -46 -39 -23 -70 -46 -70 -52 0 -9 74 -133 91 -153 4 -4 48
17 98 48 50 31 91 53 91 49 0 -5 -36 -30 -80 -57 -44 -27 -83 -53 -86 -57 -6
-11 24 -69 36 -69 5 0 7 -6 4 -13 -2 -7 6 -24 18 -38 35 -38 29 -97 -14 -143
-10 -11 -18 -25 -18 -30 0 -6 36 -40 81 -75 44 -35 78 -66 75 -68 -3 -3 -42
25 -86 62 l-81 68 -30 -29 c-16 -15 -27 -34 -24 -42 2 -7 1 -11 -4 -8 -4 3
-21 -9 -37 -25 l-29 -31 80 -76 c44 -42 69 -68 55 -57 -14 11 -51 44 -84 74
l-59 55 -35 -39 -35 -38 64 -56 c35 -31 84 -76 109 -100 25 -24 -3 -2 -61 48
-59 50 -111 91 -117 91 -10 0 -72 -72 -72 -83 0 -3 38 -33 85 -67 47 -34 85
-64 85 -66 0 -7 -15 3 -97 63 -40 29 -77 53 -82 53 -17 0 -71 -103 -61 -115 5
-6 45 -28 89 -50 45 -21 81 -43 81 -47 0 -4 -39 13 -86 39 -63 33 -91 44 -102
37 -20 -13 -51 -91 -51 -131 -1 -17 -5 -35 -11 -38 -12 -7 -14 -152 -2 -159 4
-2 52 -2 105 2 102 8 135 -2 45 -12 -29 -4 -74 -9 -100 -12 -27 -3 -50 -9 -53
-14 -8 -13 17 -122 30 -127 7 -2 52 7 101 21 48 14 89 24 91 22 3 -2 -22 -12
-54 -21 -32 -9 -75 -21 -95 -27 -25 -7 -38 -17 -38 -28 0 -20 20 -82 30 -93 4
-4 42 6 85 23 43 17 79 29 82 27 2 -2 -31 -17 -73 -33 -42 -16 -78 -34 -80
-40 -8 -18 26 -84 42 -84 12 0 14 -3 6 -12 -11 -15 13 -88 30 -88 5 0 7 -4 3
-9 -7 -12 25 -81 37 -81 5 0 7 -4 4 -9 -3 -5 6 -41 20 -81 30 -82 29 -158 -1
-204 -10 -14 -15 -26 -12 -26 4 0 -5 -11 -19 -25 -14 -14 -23 -29 -19 -34 3
-5 0 -11 -7 -13 -7 -2 -35 -27 -62 -56 l-50 -53 74 -74 c41 -41 72 -77 69 -79
-3 -3 -38 28 -79 69 l-74 75 -33 -32 -33 -32 77 -81 78 -80 -75 73 c-42 39
-80 72 -85 72 -14 0 -65 -52 -65 -66 0 -7 33 -43 73 -79 39 -37 63 -63 52 -57
-11 6 -45 36 -75 66 -30 31 -60 56 -66 56 -15 0 -64 -57 -64 -73 0 -7 61 -63
135 -126 74 -63 141 -121 148 -130 6 -8 -56 42 -139 112 -83 70 -156 127 -161
127 -5 0 -24 -20 -42 -45 l-32 -44 63 -46 c108 -78 116 -88 28 -30 -47 30 -90
55 -96 55 -16 0 -67 -88 -61 -104 3 -7 44 -31 91 -54 47 -23 86 -43 86 -46 0
-6 -59 18 -122 50 -26 13 -54 24 -63 24 -16 0 -45 -60 -48 -100 -1 -14 -6 -28
-10 -31 -10 -7 -26 -73 -27 -105 0 -19 10 -23 102 -38 110 -18 148 -33 58 -22
-30 3 -80 9 -111 12 l-56 7 -6 -33 c-4 -18 -7 -45 -7 -61 0 -26 3 -28 48 -32
l47 -3 -47 -2 -48 -2 0 -55 0 -54 108 -4 107 -3 -107 -2 -108 -2 0 -45 c0 -29
4 -45 13 -45 9 0 9 -2 -1 -9 -8 -5 -13 -23 -11 -42 1 -19 0 -41 -3 -49 -3 -8
-12 -38 -21 -66 -10 -29 -17 -55 -17 -58 0 -4 39 -31 86 -62 47 -30 83 -58 80
-61 -3 -3 -41 20 -85 51 -44 31 -86 56 -94 56 -17 0 -42 -44 -33 -59 4 -6 1
-9 -7 -5 -9 3 -24 -6 -36 -22 l-22 -27 33 -36 33 -36 -36 33 -35 32 -29 -30
-29 -31 209 -209 c116 -116 215 -210 222 -210 15 0 120 115 194 214 62 81 109
164 109 191 0 8 4 15 10 15 29 0 96 343 77 393 -6 15 -36 17 -284 19 l-278 3
280 5 280 5 6 150 c6 147 6 151 40 213 19 35 41 77 49 93 8 16 20 29 27 29 6
0 21 12 33 27 12 15 87 95 168 178 81 83 168 179 193 215 59 83 112 182 102
191 -5 4 -68 33 -140 65 -73 32 -131 59 -129 61 2 2 62 -22 134 -53 73 -31
138 -54 145 -51 7 3 24 40 38 84 20 66 24 98 24 213 -1 131 -12 204 -47 288
-6 15 -13 35 -14 45 -2 9 -28 75 -58 145 -48 115 -55 127 -77 124 -22 -2 -23
-2 -5 11 18 13 18 17 -13 95 -17 45 -31 94 -31 110 0 17 16 51 39 85 22 30 37
58 33 61 -3 3 1 6 9 6 25 0 289 307 289 336 0 8 4 14 10 14 14 0 76 118 102
195 18 56 23 92 23 182 0 66 -4 116 -11 123 -7 7 -49 2 -144 -20 -74 -17 -138
-29 -143 -27 -4 1 54 18 130 36 76 18 141 37 146 40 19 18 -88 247 -186 398
-24 37 -71 113 -103 168 -32 55 -62 102 -66 103 -12 5 -9 61 3 85 10 18 78
110 181 244 7 8 -25 38 -106 99 -64 47 -116 89 -116 91 0 3 6 1 13 -4 6 -6 59
-45 117 -87 l105 -77 26 31 c42 50 107 188 129 275 18 70 25 175 19 290 -4 95
-95 385 -120 385 -5 0 -54 -22 -109 -50 -55 -27 -103 -50 -107 -49 -5 0 40 25
100 55 59 30 107 59 107 64 0 35 -207 366 -236 377 -8 3 -14 11 -14 17 0 24
-200 256 -222 256 -3 0 -75 -69 -159 -152 l-152 -153 147 155 c80 85 146 160
146 166 0 42 -328 260 -417 278 -10 2 -36 11 -58 21 -50 22 -239 65 -287 65
-30 0 -37 -4 -41 -22 -4 -20 -4 -19 -6 5 0 15 -5 27 -9 27 -4 0 -59 7 -122 15
-135 17 -479 45 -556 45 -36 0 -54 -4 -54 -12 0 -9 -2 -10 -8 -2 -4 6 -16 14
-27 17 -38 11 -1039 10 -1342 -1 -78 -3 -93 -6 -93 -20 0 -14 -2 -14 -13 2
-12 16 -27 17 -212 9 -282 -11 -259 -13 -258 22 0 17 3 44 7 60 25 109 49 203
56 220 5 11 27 65 49 120 51 129 83 201 160 358 51 104 60 131 50 143 -10 12
-9 13 5 8 13 -5 32 27 101 170 47 97 85 180 85 185 0 5 11 28 24 52 39 70 108
240 102 254 -3 8 1 16 8 18 19 7 75 159 156 422 24 79 63 244 65 282 2 23 5
46 9 51 3 5 13 59 23 118 18 116 26 591 10 647 -6 22 -13 27 -40 28 -27 2 -28
2 -7 6 14 3 29 8 33 13 16 14 -51 351 -87 434 -7 17 -20 56 -30 86 -21 64
-112 260 -121 260 -3 0 -49 -23 -101 -51 -52 -28 -94 -48 -94 -46 0 3 43 29
95 57 52 28 95 53 95 55 0 2 -16 31 -36 65 -112 192 -332 421 -510 533 -50 31
-44 37 -134 -113 -35 -58 -68 -109 -73 -115 -15 -16 12 33 80 145 43 69 62
109 56 118 -34 54 -478 224 -550 210 -11 -2 -22 -20 -29 -48 l-13 -45 6 51 c5
50 4 51 -23 58 -71 15 -270 16 -339 0z m352 -151 c-3 -10 -5 -4 -5 12 0 17 2
24 5 18 2 -7 2 -21 0 -30z m-10 -55 c-3 -7 -5 -2 -5 12 0 14 2 19 5 13 2 -7 2
-19 0 -25z m-10 -50 c-3 -7 -5 -2 -5 12 0 14 2 19 5 13 2 -7 2 -19 0 -25z
m-10 -50 c-3 -8 -6 -5 -6 6 -1 11 2 17 5 13 3 -3 4 -12 1 -19z m-10 -60 c-3
-7 -5 -2 -5 12 0 14 2 19 5 13 2 -7 2 -19 0 -25z m-253 -44 c3 -8 2 -12 -4 -9
-6 3 -10 10 -10 16 0 14 7 11 14 -7z m736 -114 c-6 -11 -13 -20 -16 -20 -2 0
0 9 6 20 6 11 13 20 16 20 2 0 0 -9 -6 -20z m50 -104 c0 -2 -8 -10 -17 -17
-16 -13 -17 -12 -4 4 13 16 21 21 21 13z m-1082 -23 c-15 -2 -42 -2 -60 0 -18
2 -6 4 27 4 33 0 48 -2 33 -4z m125 -10 c-7 -2 -21 -2 -30 0 -10 3 -4 5 12 5
17 0 24 -2 18 -5z m94 -9 c-3 -3 -12 -4 -19 -1 -8 3 -5 6 6 6 11 1 17 -2 13
-5z m913 -47 c0 -2 -12 -14 -27 -28 l-28 -24 24 28 c23 25 31 32 31 24z m200
-191 c0 -2 -8 -10 -17 -17 -16 -13 -17 -12 -4 4 13 16 21 21 21 13z m-40 -30
c0 -2 -8 -10 -17 -17 -16 -13 -17 -12 -4 4 13 16 21 21 21 13z m110 -41 c0 -2
-10 -9 -22 -15 -22 -11 -22 -10 -4 4 21 17 26 19 26 11z m200 0 c0 -2 -18 -14
-40 -25 -22 -11 -40 -18 -40 -15 0 2 17 13 38 24 42 23 42 23 42 16z m-110
-60 c0 -2 -10 -9 -22 -15 -22 -11 -22 -10 -4 4 21 17 26 19 26 11z m-1317
-152 c-7 -2 -21 -2 -30 0 -10 3 -4 5 12 5 17 0 24 -2 18 -5z m90 -10 c-7 -2
-19 -2 -25 0 -7 3 -2 5 12 5 14 0 19 -2 13 -5z m-46 -99 c-3 -3 -12 -4 -19 -1
-8 3 -5 6 6 6 11 1 17 -2 13 -5z m60 -10 c-3 -3 -12 -4 -19 -1 -8 3 -5 6 6 6
11 1 17 -2 13 -5z m-484 -41 c-7 -2 -19 -2 -25 0 -7 3 -2 5 12 5 14 0 19 -2
13 -5z m84 -9 c-3 -3 -12 -4 -19 -1 -8 3 -5 6 6 6 11 1 17 -2 13 -5z m66 -11
c-7 -2 -19 -2 -25 0 -7 3 -2 5 12 5 14 0 19 -2 13 -5z m84 -9 c-3 -3 -12 -4
-19 -1 -8 3 -5 6 6 6 11 1 17 -2 13 -5z m71 -11 c-10 -2 -26 -2 -35 0 -10 3
-2 5 17 5 19 0 27 -2 18 -5z m65 -10 c-7 -2 -19 -2 -25 0 -7 3 -2 5 12 5 14 0
19 -2 13 -5z m70 -10 c-7 -2 -19 -2 -25 0 -7 3 -2 5 12 5 14 0 19 -2 13 -5z
m-110 -90 c-7 -2 -19 -2 -25 0 -7 3 -2 5 12 5 14 0 19 -2 13 -5z m60 -10 c-7
-2 -19 -2 -25 0 -7 3 -2 5 12 5 14 0 19 -2 13 -5z m70 -10 c-7 -2 -19 -2 -25
0 -7 3 -2 5 12 5 14 0 19 -2 13 -5z m-100 -90 c-7 -2 -21 -2 -30 0 -10 3 -4 5
12 5 17 0 24 -2 18 -5z m50 -10 c-7 -2 -19 -2 -25 0 -7 3 -2 5 12 5 14 0 19
-2 13 -5z m1765 -60 c-10 -2 -28 -2 -40 0 -13 2 -5 4 17 4 22 1 32 -1 23 -4z
m-95 -10 c-13 -2 -33 -2 -45 0 -13 2 -3 4 22 4 25 0 35 -2 23 -4z m-100 -10
c-7 -2 -19 -2 -25 0 -7 3 -2 5 12 5 14 0 19 -2 13 -5z m-70 -10 c-7 -2 -21 -2
-30 0 -10 3 -4 5 12 5 17 0 24 -2 18 -5z m-100 -10 c-7 -2 -19 -2 -25 0 -7 3
-2 5 12 5 14 0 19 -2 13 -5z m-70 -10 c-7 -2 -19 -2 -25 0 -7 3 -2 5 12 5 14
0 19 -2 13 -5z m14 -89 c-3 -3 -12 -4 -19 -1 -8 3 -5 6 6 6 11 1 17 -2 13 -5z
m-1478 -100 c10 -9 -35 -3 -49 6 -11 8 -7 9 15 4 17 -4 32 -8 34 -10z m44 -11
c-7 -2 -19 -2 -25 0 -7 3 -2 5 12 5 14 0 19 -2 13 -5z m44 -9 c-3 -3 -12 -4
-19 -1 -8 3 -5 6 6 6 11 1 17 -2 13 -5z m-134 -81 c-7 -2 -19 -2 -25 0 -7 3
-2 5 12 5 14 0 19 -2 13 -5z m44 -9 c-3 -3 -12 -4 -19 -1 -8 3 -5 6 6 6 11 1
17 -2 13 -5z m40 -10 c-3 -3 -12 -4 -19 -1 -8 3 -5 6 6 6 11 1 17 -2 13 -5z
m40 -10 c-3 -3 -12 -4 -19 -1 -8 3 -5 6 6 6 11 1 17 -2 13 -5z m-252 -44 c13
-5 14 -9 5 -9 -8 0 -24 4 -35 9 -13 5 -14 9 -5 9 8 0 24 -4 35 -9z m52 -16
c-3 -3 -12 -4 -19 -1 -8 3 -5 6 6 6 11 1 17 -2 13 -5z m40 -10 c-3 -3 -12 -4
-19 -1 -8 3 -5 6 6 6 11 1 17 -2 13 -5z m40 -10 c-3 -3 -12 -4 -19 -1 -8 3 -5
6 6 6 11 1 17 -2 13 -5z m58 -14 c13 -5 14 -9 5 -9 -8 0 -24 4 -35 9 -13 5
-14 9 -5 9 8 0 24 -4 35 -9z m52 -16 c-3 -3 -12 -4 -19 -1 -8 3 -5 6 6 6 11 1
17 -2 13 -5z m1436 -41 c-7 -2 -19 -2 -25 0 -7 3 -2 5 12 5 14 0 19 -2 13 -5z
m80 -10 c-7 -2 -19 -2 -25 0 -7 3 -2 5 12 5 14 0 19 -2 13 -5z m-1636 -29 c-3
-3 -12 -4 -19 -1 -8 3 -5 6 6 6 11 1 17 -2 13 -5z m1496 -51 c-7 -2 -19 -2
-25 0 -7 3 -2 5 12 5 14 0 19 -2 13 -5z m80 -10 c-7 -2 -19 -2 -25 0 -7 3 -2
5 12 5 14 0 19 -2 13 -5z m-1553 -58 c19 -7 28 -13 20 -13 -8 0 -31 6 -50 13
-19 7 -28 13 -20 13 8 0 31 -6 50 -13z m1607 -51 c-3 -3 -12 -4 -19 -1 -8 3
-5 6 6 6 11 1 17 -2 13 -5z m70 -10 c-3 -3 -12 -4 -19 -1 -8 3 -5 6 6 6 11 1
17 -2 13 -5z m110 -20 c-3 -3 -12 -4 -19 -1 -8 3 -5 6 6 6 11 1 17 -2 13 -5z
m56 -11 c-7 -2 -21 -2 -30 0 -10 3 -4 5 12 5 17 0 24 -2 18 -5z m50 -10 c-7
-2 -19 -2 -25 0 -7 3 -2 5 12 5 14 0 19 -2 13 -5z m54 -9 c-3 -3 -12 -4 -19
-1 -8 3 -5 6 6 6 11 1 17 -2 13 -5z m-480 -110 c-3 -3 -12 -4 -19 -1 -8 3 -5
6 6 6 11 1 17 -2 13 -5z m-1668 -60 c14 -12 -19 -1 -35 12 -18 14 -18 14 6 3
14 -6 27 -13 29 -15z m61 -24 c19 -11 31 -19 25 -19 -5 0 -26 8 -45 19 -19 11
-30 19 -25 19 6 0 26 -8 45 -19z m-370 -56 c0 -2 -9 0 -20 6 -11 6 -20 13 -20
16 0 2 9 0 20 -6 11 -6 20 -13 20 -16z m70 -40 c0 -2 -9 0 -20 6 -11 6 -20 13
-20 16 0 2 9 0 20 -6 11 -6 20 -13 20 -16z m70 -40 c0 -2 -13 2 -30 11 -16 9
-30 18 -30 21 0 2 14 -2 30 -11 17 -9 30 -18 30 -21z m70 -40 c0 -2 -13 2 -30
11 -16 9 -30 18 -30 21 0 2 14 -2 30 -11 17 -9 30 -18 30 -21z m1690 -24 c8
-5 11 -10 5 -10 -5 0 -17 5 -25 10 -8 5 -10 10 -5 10 6 0 17 -5 25 -10z
m-1680 -117 c0 -7 -58 29 -88 55 -15 13 -1 6 31 -14 31 -20 57 -39 57 -41z
m1690 7 c8 -5 11 -10 5 -10 -5 0 -17 5 -25 10 -8 5 -10 10 -5 10 6 0 17 -5 25
-10z m0 -110 c8 -5 11 -10 5 -10 -5 0 -17 5 -25 10 -8 5 -10 10 -5 10 6 0 17
-5 25 -10z m50 -20 c8 -5 11 -10 5 -10 -5 0 -17 5 -25 10 -8 5 -10 10 -5 10 6
0 17 -5 25 -10z m50 -20 c8 -5 11 -10 5 -10 -5 0 -17 5 -25 10 -8 5 -10 10 -5
10 6 0 17 -5 25 -10z m-240 -10 c8 -5 11 -10 5 -10 -5 0 -17 5 -25 10 -8 5
-10 10 -5 10 6 0 17 -5 25 -10z m-2284 -32 l29 -33 -32 29 c-31 28 -38 36 -30
36 2 0 16 -15 33 -32z m2574 22 c8 -5 11 -10 5 -10 -5 0 -17 5 -25 10 -8 5
-10 10 -5 10 6 0 17 -5 25 -10z m-214 -26 c18 -14 18 -14 -6 -3 -31 14 -36 19
-24 19 6 0 19 -7 30 -16z m264 6 c8 -5 11 -10 5 -10 -5 0 -17 5 -25 10 -8 5
-10 10 -5 10 6 0 17 -5 25 -10z m88 -35 c24 -10 41 -19 39 -22 -3 -2 -29 8
-58 22 -59 27 -50 28 19 0z m-2648 -40 c19 -19 32 -35 29 -35 -3 0 -20 16 -39
35 -19 19 -32 35 -29 35 3 0 20 -16 39 -35z m2150 25 c8 -5 11 -10 5 -10 -5 0
-17 5 -25 10 -8 5 -10 10 -5 10 6 0 17 -5 25 -10z m80 -35 c14 -8 21 -14 15
-14 -5 0 -21 6 -35 14 -14 8 -20 14 -15 14 6 0 21 -6 35 -14z m-2131 -272 c29
-38 36 -50 16 -28 -39 42 -79 95 -72 95 2 0 27 -30 56 -67z m1931 27 c19 -11
31 -19 25 -19 -5 0 -26 8 -45 19 -19 11 -30 19 -25 19 6 0 26 -8 45 -19z
m-2020 -80 c17 -22 30 -40 27 -40 -3 0 -22 21 -43 47 -21 26 -33 44 -27 40 6
-4 26 -25 43 -47z m1980 -130 c41 -21 71 -39 65 -39 -5 0 -44 18 -85 39 -41
21 -70 39 -65 39 6 0 44 -18 85 -39z m-60 -85 c39 -19 70 -38 70 -40 0 -5
-139 62 -149 71 -13 12 18 0 79 -31z m-2364 -47 l29 -33 -32 29 c-31 28 -38
36 -30 36 2 0 16 -15 33 -32z m2734 -18 c41 -21 71 -39 65 -39 -5 0 -44 18
-85 39 -41 21 -70 39 -65 39 6 0 44 -18 85 -39z m-475 -8 c-3 -3 -11 0 -18 7
-9 10 -8 11 6 5 10 -3 15 -9 12 -12z m-2189 -34 l29 -33 -32 29 c-31 28 -38
36 -30 36 2 0 16 -15 33 -32z m2314 -18 c8 -5 11 -10 5 -10 -5 0 -17 5 -25 10
-8 5 -10 10 -5 10 6 0 17 -5 25 -10z m-2249 -37 c13 -16 12 -17 -3 -4 -10 7
-18 15 -18 17 0 8 8 3 21 -13z m1999 -203 c8 -5 11 -10 5 -10 -5 0 -17 5 -25
10 -8 5 -10 10 -5 10 6 0 17 -5 25 -10z m60 -25 c14 -8 21 -14 15 -14 -5 0
-21 6 -35 14 -14 8 -20 14 -15 14 6 0 21 -6 35 -14z m60 -25 c8 -5 11 -10 5
-10 -5 0 -17 5 -25 10 -8 5 -10 10 -5 10 6 0 17 -5 25 -10z m-90 -82 c10 -6 7
-7 -10 -2 -14 3 -32 11 -40 16 -10 6 -7 7 10 2 14 -3 32 -11 40 -16z m-2330
-18 c8 -5 11 -10 5 -10 -5 0 -17 5 -25 10 -8 5 -10 10 -5 10 6 0 17 -5 25 -10z
m2380 0 c8 -5 11 -10 5 -10 -5 0 -17 5 -25 10 -8 5 -10 10 -5 10 6 0 17 -5 25
-10z m-2310 -30 c8 -5 11 -10 5 -10 -5 0 -17 5 -25 10 -8 5 -10 10 -5 10 6 0
17 -5 25 -10z m-480 -20 c8 -5 11 -10 5 -10 -5 0 -17 5 -25 10 -8 5 -10 10 -5
10 6 0 17 -5 25 -10z m60 -25 c14 -8 21 -14 15 -14 -5 0 -21 6 -35 14 -14 8
-20 14 -15 14 6 0 21 -6 35 -14z m2624 -1 c26 -9 45 -18 43 -20 -2 -2 -28 5
-58 15 -30 11 -49 20 -43 20 6 1 32 -6 58 -15z m-2554 -29 c14 -8 21 -14 15
-14 -5 0 -21 6 -35 14 -14 8 -20 14 -15 14 6 0 21 -6 35 -14z m250 5 c8 -5 11
-10 5 -10 -5 0 -17 5 -25 10 -8 5 -10 10 -5 10 6 0 17 -5 25 -10z m-180 -35
c14 -8 21 -14 15 -14 -5 0 -21 6 -35 14 -14 8 -20 14 -15 14 6 0 21 -6 35 -14z
m250 5 c8 -5 11 -10 5 -10 -5 0 -17 5 -25 10 -8 5 -10 10 -5 10 6 0 17 -5 25
-10z m-110 -65 c14 -8 21 -14 15 -14 -5 0 -21 6 -35 14 -14 8 -20 14 -15 14 6
0 21 -6 35 -14z m2325 5 c13 -5 14 -9 5 -9 -8 0 -24 4 -35 9 -13 5 -14 9 -5 9
8 0 24 -4 35 -9z m59 -19 c4 -5 -3 -7 -14 -4 -23 6 -26 13 -6 13 8 0 17 -4 20
-9z m-2324 -11 c8 -5 11 -10 5 -10 -5 0 -17 5 -25 10 -8 5 -10 10 -5 10 6 0
17 -5 25 -10z m2190 -70 c20 -6 21 -8 5 -8 -11 0 -31 4 -45 8 -20 6 -21 8 -5
8 11 0 31 -4 45 -8z m-2270 -10 c8 -5 11 -10 5 -10 -5 0 -17 5 -25 10 -8 5
-10 10 -5 10 6 0 17 -5 25 -10z m2333 -7 c-7 -2 -19 -2 -25 0 -7 3 -2 5 12 5
14 0 19 -2 13 -5z m-2263 -23 c8 -5 11 -10 5 -10 -5 0 -17 5 -25 10 -8 5 -10
10 -5 10 6 0 17 -5 25 -10z m-165 -48 c-3 -3 -11 0 -18 7 -9 10 -8 11 6 5 10
-3 15 -9 12 -12z m65 -22 c8 -5 11 -10 5 -10 -5 0 -17 5 -25 10 -8 5 -10 10
-5 10 6 0 17 -5 25 -10z m3997 -512 c-1 -68 -3 -15 -3 117 0 132 2 187 3 123
2 -64 2 -172 0 -240z m-730 155 c-2 -37 -3 -9 -3 62 0 72 1 102 3 68 2 -34 2
-93 0 -130z m1460 -20 c-2 -27 -3 -5 -3 47 0 52 1 74 3 48 2 -27 2 -69 0 -95z
m750 95 c-3 -7 -5 -2 -5 12 0 14 2 19 5 13 2 -7 2 -19 0 -25z m-5607 -3 c14
-8 21 -14 15 -14 -5 0 -21 6 -35 14 -14 8 -20 14 -15 14 6 0 21 -6 35 -14z
m-470 -15 c8 -5 11 -10 5 -10 -5 0 -17 5 -25 10 -8 5 -10 10 -5 10 6 0 17 -5
25 -10z m6067 -57 c-3 -10 -5 -2 -5 17 0 19 2 27 5 18 2 -10 2 -26 0 -35z
m-5947 2 c25 -13 41 -24 35 -24 -5 0 -30 11 -55 24 -25 13 -40 24 -35 24 6 0
30 -11 55 -24z m269 -11 c14 -12 -19 -1 -35 12 -18 14 -18 14 6 3 14 -6 27
-13 29 -15z m81 -34 c19 -11 31 -19 25 -19 -5 0 -26 8 -45 19 -19 11 -30 19
-25 19 6 0 26 -8 45 -19z m2720 16 c0 -2 -8 -10 -17 -17 -16 -13 -17 -12 -4 4
13 16 21 21 21 13z m-2975 -16 c3 -6 -1 -7 -9 -4 -18 7 -21 14 -7 14 6 0 13
-4 16 -10z m5842 -22 c-3 -7 -5 -2 -5 12 0 14 2 19 5 13 2 -7 2 -19 0 -25z
m-5797 2 c8 -5 11 -10 5 -10 -5 0 -17 5 -25 10 -8 5 -10 10 -5 10 6 0 17 -5
25 -10z m110 -50 c19 -11 31 -19 25 -19 -5 0 -26 8 -45 19 -19 11 -30 19 -25
19 6 0 26 -8 45 -19z m5677 -27 c-3 -10 -5 -2 -5 17 0 19 2 27 5 18 2 -10 2
-26 0 -35z m-2070 -90 c-2 -16 -4 -3 -4 27 0 30 2 43 4 28 2 -16 2 -40 0 -55z
m1240 40 c-3 -10 -5 -4 -5 12 0 17 2 24 5 18 2 -7 2 -21 0 -30z m100 -40 c-2
-16 -4 -3 -4 27 0 30 2 43 4 28 2 -16 2 -40 0 -55z m-1550 15 c-2 -13 -4 -5
-4 17 -1 22 1 32 4 23 2 -10 2 -28 0 -40z m-3492 24 c-3 -3 -11 0 -18 7 -9 10
-8 11 6 5 10 -3 15 -9 12 -12z m3392 -94 c-2 -24 -4 -7 -4 37 0 44 2 63 4 43
2 -21 2 -57 0 -80z m2370 80 c-3 -7 -5 -2 -5 12 0 14 2 19 5 13 2 -7 2 -19 0
-25z m-210 -40 c-2 -13 -4 -5 -4 17 -1 22 1 32 4 23 2 -10 2 -28 0 -40z m-410
-30 c-2 -13 -4 -3 -4 22 0 25 2 35 4 23 2 -13 2 -33 0 -45z m510 15 c-3 -10
-5 -2 -5 17 0 19 2 27 5 18 2 -10 2 -26 0 -35z m100 -20 c-3 -10 -5 -2 -5 17
0 19 2 27 5 18 2 -10 2 -26 0 -35z m-510 -15 c-2 -13 -4 -5 -4 17 -1 22 1 32
4 23 2 -10 2 -28 0 -40z m-1430 -10 c-2 -13 -4 -5 -4 17 -1 22 1 32 4 23 2
-10 2 -28 0 -40z m1020 5 c-3 -10 -5 -4 -5 12 0 17 2 24 5 18 2 -7 2 -21 0
-30z m-4807 -13 c41 -21 71 -39 65 -39 -5 0 -44 18 -85 39 -41 21 -70 39 -65
39 6 0 44 -18 85 -39z m5517 -12 c-3 -8 -6 -5 -6 6 -1 11 2 17 5 13 3 -3 4
-12 1 -19z m100 -10 c-3 -8 -6 -5 -6 6 -1 11 2 17 5 13 3 -3 4 -12 1 -19z
m100 -10 c-3 -8 -6 -5 -6 6 -1 11 2 17 5 13 3 -3 4 -12 1 -19z m513 -121 c0
-2 -10 -12 -22 -23 l-23 -19 19 23 c18 21 26 27 26 19z m170 -90 c0 -2 -15
-16 -32 -33 l-33 -29 29 33 c28 30 36 37 36 29z m-6980 -43 c0 -2 -13 2 -30
11 -16 9 -30 18 -30 21 0 2 14 -2 30 -11 17 -9 30 -18 30 -21z m490 -29 c0 -3
-22 6 -50 20 -27 14 -50 28 -50 30 0 3 23 -6 50 -20 28 -14 50 -28 50 -30z
m-420 -11 c0 -2 -13 2 -30 11 -16 9 -30 18 -30 21 0 2 14 -2 30 -11 17 -9 30
-18 30 -21z m6830 13 c0 -2 -12 -14 -27 -28 l-28 -24 24 28 c23 25 31 32 31
24z m135 -15 c-53 -42 -60 -46 -33 -19 16 15 31 27 35 27 4 0 3 -3 -2 -8z
m-6875 -48 c0 -2 -13 2 -30 11 -16 9 -30 18 -30 21 0 2 14 -2 30 -11 17 -9 30
-18 30 -21z m290 -39 c0 -3 -18 4 -40 15 -22 11 -40 23 -40 25 0 3 18 -4 40
-15 22 -11 40 -23 40 -25z m-220 -1 c0 -2 -13 2 -30 11 -16 9 -30 18 -30 21 0
2 14 -2 30 -11 17 -9 30 -18 30 -21z m6730 33 c0 -2 -10 -12 -22 -23 l-23 -19
19 23 c18 21 26 27 26 19z m-6660 -73 c0 -2 -9 0 -20 6 -11 6 -20 13 -20 16 0
2 9 0 20 -6 11 -6 20 -13 20 -16z m90 -50 c0 -2 -13 2 -30 11 -16 9 -30 18
-30 21 0 2 14 -2 30 -11 17 -9 30 -18 30 -21z m-110 -60 c0 -2 -13 2 -30 11
-16 9 -30 18 -30 21 0 2 14 -2 30 -11 17 -9 30 -18 30 -21z m50 -30 c0 -2 -9
0 -20 6 -11 6 -20 13 -20 16 0 2 9 0 20 -6 11 -6 20 -13 20 -16z m-119 -50
c33 -19 59 -38 59 -41 0 -2 -15 4 -32 15 -18 11 -49 29 -68 41 -19 11 -31 21
-26 21 4 0 35 -16 67 -36z m7169 -58 c0 -2 -7 -7 -16 -10 -8 -3 -12 -2 -9 4 6
10 25 14 25 6z m-7640 -262 c0 -3 -36 23 -80 56 -44 33 -80 63 -80 66 0 3 36
-23 80 -56 44 -33 80 -63 80 -66z m290 50 c0 -3 -13 4 -30 16 -16 12 -30 24
-30 26 0 3 14 -4 30 -16 17 -12 30 -24 30 -26z m-30 -110 c0 -3 -13 4 -30 16
-16 12 -30 24 -30 26 0 3 14 -4 30 -16 17 -12 30 -24 30 -26z m7385 -54 c12
-5 -5 -7 -45 -3 -36 3 -67 7 -69 9 -9 8 95 2 114 -6z m-134 -207 c13 -16 12
-17 -3 -4 -10 7 -18 15 -18 17 0 8 8 3 21 -13z m-21 -110 c0 -6 -50 31 -90 67
-19 17 -7 10 28 -16 34 -26 62 -49 62 -51z m138 23 c3 -5 -16 6 -42 24 -26 19
-50 39 -54 44 -3 5 16 -6 42 -24 26 -19 50 -39 54 -44z m-8128 -111 c0 -5 -5
-3 -10 5 -5 8 -10 20 -10 25 0 6 5 3 10 -5 5 -8 10 -19 10 -25z m-256 -111 c3
-8 2 -12 -4 -9 -6 3 -10 10 -10 16 0 14 7 11 14 -7z m163 -6 c-3 -8 -6 -5 -6
6 -1 11 2 17 5 13 3 -3 4 -12 1 -19z m-144 -305 c-24 -2 -62 -2 -85 0 -24 2
-5 4 42 4 47 0 66 -2 43 -4z m8157 -103 c-8 -5 -19 -10 -25 -10 -5 0 -3 5 5
10 8 5 20 10 25 10 6 0 3 -5 -5 -10z m-8157 -317 c-24 -2 -62 -2 -85 0 -24 2
-5 4 42 4 47 0 66 -2 43 -4z m8127 -638 c19 -19 32 -35 29 -35 -3 0 -20 16
-39 35 -19 19 -32 35 -29 35 3 0 20 -16 39 -35z m65 -55 c10 -11 16 -20 13
-20 -3 0 -13 9 -23 20 -10 11 -16 20 -13 20 3 0 13 -9 23 -20z m-19 -262 l29
-33 -32 29 c-31 28 -38 36 -30 36 2 0 16 -15 33 -32z m80 -70 l29 -33 -32 29
c-31 28 -38 36 -30 36 2 0 16 -15 33 -32z m75 -65 c13 -16 12 -17 -3 -4 -10 7
-18 15 -18 17 0 8 8 3 21 -13z m-8318 -360 c-23 -2 -64 -2 -90 0 -26 2 -7 3
42 3 50 0 71 -1 48 -3z m8287 -53 c-8 -5 -19 -10 -25 -10 -5 0 -3 5 5 10 8 5
20 10 25 10 6 0 3 -5 -5 -10z m-80 -35 c-14 -8 -29 -14 -35 -14 -5 0 1 6 15
14 14 8 30 14 35 14 6 0 -1 -6 -15 -14z m-70 -30 c-14 -8 -29 -14 -35 -14 -5
0 1 6 15 14 14 8 30 14 35 14 6 0 -1 -6 -15 -14z m-130 -55 c-8 -5 -19 -10
-25 -10 -5 0 -3 5 5 10 8 5 20 10 25 10 6 0 3 -5 -5 -10z m-140 -60 c-8 -5
-19 -10 -25 -10 -5 0 -3 5 5 10 8 5 20 10 25 10 6 0 3 -5 -5 -10z m90 -75
c-14 -8 -29 -14 -35 -14 -5 0 1 6 15 14 14 8 30 14 35 14 6 0 -1 -6 -15 -14z
m-60 -25 c-8 -5 -19 -10 -25 -10 -5 0 -3 5 5 10 8 5 20 10 25 10 6 0 3 -5 -5
-10z m120 -60 c-8 -5 -19 -10 -25 -10 -5 0 -3 5 5 10 8 5 20 10 25 10 6 0 3
-5 -5 -10z m95 -159 c-6 -5 -30 -12 -55 -15 l-45 -5 45 13 c56 17 67 19 55 7z
m-125 -31 c-14 -4 -34 -8 -45 -8 -16 0 -15 2 5 8 14 4 34 8 45 8 16 0 15 -2
-5 -8z m-7987 -247 c-23 -2 -64 -2 -90 0 -26 2 -7 3 42 3 50 0 71 -1 48 -3z
m7898 -40 c13 -16 12 -17 -3 -4 -10 7 -18 15 -18 17 0 8 8 3 21 -13z m50 -40
c13 -16 12 -17 -3 -4 -10 7 -18 15 -18 17 0 8 8 3 21 -13z m-8048 -20 c-67 -2
-179 -2 -250 0 -70 1 -15 3 122 3 138 0 195 -2 128 -3z m8088 -10 c13 -16 12
-17 -3 -4 -10 7 -18 15 -18 17 0 8 8 3 21 -13z m-7998 -200 c-24 -2 -62 -2
-85 0 -24 2 -5 4 42 4 47 0 66 -2 43 -4z m7837 -338 c13 -14 21 -25 18 -25 -2
0 -15 11 -28 25 -13 14 -21 25 -18 25 2 0 15 -11 28 -25z m-402 -382 c-10 -2
-28 -2 -40 0 -13 2 -5 4 17 4 22 1 32 -1 23 -4z m-227 -550 c13 -16 12 -17 -3
-4 -10 7 -18 15 -18 17 0 8 8 3 21 -13z m50 -40 c13 -16 12 -17 -3 -4 -10 7
-18 15 -18 17 0 8 8 3 21 -13z m-56 -73 c21 -22 37 -40 34 -40 -3 0 -23 18
-44 40 -21 22 -37 40 -34 40 3 0 23 -18 44 -40z"/>
<path d="M746 6493 c-27 -4 -28 -6 -23 -46 15 -111 15 -125 -1 -52 l-18 80
-34 -1 c-19 -1 -52 -8 -72 -17 l-37 -15 45 -118 c24 -64 43 -119 41 -120 -2
-2 -21 40 -42 94 -20 53 -44 107 -52 120 l-13 22 -60 -30 c-33 -17 -60 -33
-60 -36 0 -4 23 -43 50 -89 28 -46 50 -87 50 -91 0 -5 -23 29 -51 74 -29 46
-58 86 -65 89 -14 5 -99 -52 -107 -72 -3 -6 27 -46 65 -88 87 -96 81 -102 -8
-7 -37 39 -72 70 -79 70 -17 0 -85 -76 -85 -95 0 -8 -6 -15 -13 -15 -16 0 -77
-98 -71 -114 3 -6 45 -31 94 -56 113 -57 102 -64 -15 -10 -48 22 -91 40 -96
40 -11 0 -51 -111 -45 -125 2 -7 17 -16 33 -19 64 -16 165 -48 161 -51 -2 -2
-44 7 -93 20 -50 14 -95 25 -102 25 -14 0 -33 -61 -33 -107 0 -31 1 -32 58
-38 96 -10 101 -14 17 -12 l-80 2 -3 -57 -3 -58 304 0 305 0 4 58 c8 110 81
204 180 232 21 6 153 10 312 10 l276 0 0 305 0 304 -97 -2 -98 -2 -6 -105 -5
-105 -2 107 -2 107 -95 0 -95 0 -2 -107 -2 -107 -5 105 -6 105 -44 3 c-28 2
-47 -1 -52 -10 -7 -10 -9 -10 -9 0 0 12 -50 14 -114 5z m121 -166 c-2 -23 -3
-1 -3 48 0 50 1 68 3 42 2 -26 2 -67 0 -90z m-120 -39 c-3 -8 -6 -5 -6 6 -1
11 2 17 5 13 3 -3 4 -12 1 -19z m-534 -595 c-7 -2 -19 -2 -25 0 -7 3 -2 5 12
5 14 0 19 -2 13 -5z"/>
<path d="M1390 6195 l0 -305 352 0 c241 0 356 4 365 11 8 7 13 8 13 2 0 -6 33
-13 73 -15 89 -6 141 -31 195 -95 51 -59 53 -70 55 -393 l2 -245 302 -3 301
-2 1 200 1 199 -108 4 -107 3 108 2 108 2 -3 53 -3 52 -105 -2 -105 -1 109 11
109 10 -7 61 c-3 33 -10 64 -16 70 -8 8 -81 -4 -190 -31 -14 -3 -22 -3 -19 1
4 4 47 16 95 28 110 25 116 29 102 71 -21 67 -31 87 -44 87 -7 0 -70 -25 -140
-55 -70 -30 -129 -53 -131 -52 -2 2 56 30 128 62 72 32 133 64 136 71 7 19
-47 114 -65 114 -8 0 -50 -25 -93 -55 -44 -31 -79 -52 -79 -48 1 5 37 32 80
62 44 30 80 60 80 67 0 6 -19 33 -42 58 l-43 46 -80 -72 -80 -72 75 78 75 77
-48 45 c-27 24 -55 44 -63 44 -8 0 -14 4 -14 9 0 12 -88 61 -109 61 -11 0 -30
-31 -59 -92 -23 -50 -44 -89 -47 -86 -3 3 12 47 34 98 23 51 38 96 36 100 -6
10 -93 40 -116 40 -19 0 -26 -19 -50 -130 -7 -30 -14 -50 -16 -44 -2 6 5 48
16 93 22 96 20 98 -70 103 l-54 3 -5 -75 -6 -75 -4 75 -5 75 -47 3 c-34 2 -48
-1 -48 -9 0 -10 -3 -10 -12 -1 -7 7 -28 12 -48 12 -20 0 -41 -5 -48 -12 -9 -9
-12 -9 -12 0 0 8 -17 12 -45 12 l-45 0 -2 -107 -2 -108 -5 105 -6 105 -92 2
-93 3 0 -105 c0 -63 -4 -105 -10 -105 -6 0 -10 42 -10 105 l0 105 -45 0 c-27
0 -45 -5 -45 -11 0 -8 -4 -8 -12 -1 -7 6 -55 10 -105 11 l-93 0 0 -304z m207
133 c-2 -24 -4 -5 -4 42 0 47 2 66 4 43 2 -24 2 -62 0 -85z m410 15 c-2 -21
-4 -4 -4 37 0 41 2 58 4 38 2 -21 2 -55 0 -75z m210 -40 c-3 -10 -5 -4 -5 12
0 17 2 24 5 18 2 -7 2 -21 0 -30z m443 -463 c-8 -5 -19 -10 -25 -10 -5 0 -3 5
5 10 8 5 20 10 25 10 6 0 3 -5 -5 -10z m308 -597 c-21 -2 -57 -2 -80 0 -24 2
-7 4 37 4 44 0 63 -2 43 -4z"/>
<path d="M3 5483 l2 -98 105 -6 105 -5 -107 -2 -107 -2 0 -95 0 -95 112 -2
112 -2 -110 -5 -110 -6 -3 -47 -3 -47 108 -4 108 -3 -107 -2 -108 -2 0 -45 0
-45 108 -2 107 -2 -105 -5 -105 -6 -2 -97 -2 -97 107 -4 107 -3 -107 -2 -108
-2 0 -45 c0 -27 5 -45 11 -45 8 0 8 -4 0 -13 -6 -8 -10 -49 -8 -103 l2 -89
105 -6 105 -5 -107 -2 -107 -2 2 -97 2 -98 105 -6 105 -5 -107 -2 -108 -2 0
-45 c0 -29 4 -45 13 -45 9 0 9 -2 0 -8 -16 -10 -16 -194 0 -204 9 -6 9 -8 0
-8 -9 0 -12 -28 -12 -95 l0 -95 107 -2 c103 -2 104 -2 22 -5 -128 -5 -130 -5
-130 -57 0 -26 5 -46 13 -49 9 -4 9 -6 0 -6 -17 -1 -18 -91 -1 -91 9 0 9 -3 0
-12 -16 -16 -16 -80 0 -96 9 -9 9 -12 0 -12 -8 0 -12 -17 -12 -45 l0 -44 108
-4 107 -3 -107 -2 -107 -2 2 -147 2 -148 105 -6 105 -5 -107 -2 -107 -2 0 -97
c0 -64 5 -100 12 -105 9 -6 9 -8 0 -8 -9 0 -13 -16 -13 -45 l0 -45 305 0 305
0 0 355 c-1 250 -4 355 -12 355 -7 0 -7 4 1 13 16 21 15 714 -2 720 -9 4 -9 6
0 6 10 1 13 158 13 721 l-1 720 -304 0 -304 0 2 -97z m430 -1350 c-67 -2 -179
-2 -250 0 -70 1 -15 3 122 3 138 0 195 -2 128 -3z m-275 -210 c-21 -2 -55 -2
-75 0 -21 2 -4 4 37 4 41 0 58 -2 38 -4z m10 -310 c-27 -2 -69 -2 -96 0 -26 2
-4 3 48 3 52 0 74 -1 48 -3z m4 -830 c-23 -2 -61 -2 -85 0 -23 2 -4 4 43 4 47
0 66 -2 42 -4z"/>
<path d="M2447 5133 c-11 -11 -8 -701 4 -708 7 -5 7 -11 0 -19 -15 -17 -14
-693 0 -701 7 -5 7 -11 0 -19 -14 -17 -14 -695 0 -712 7 -8 7 -14 0 -19 -15
-9 -14 -705 1 -705 7 0 7 -4 -1 -14 -8 -9 -10 -115 -9 -362 l3 -349 302 -3
302 -2 0 100 0 99 -107 4 -107 3 108 2 107 2 0 95 0 95 -107 2 -108 2 105 5
105 6 3 44 c2 28 -1 47 -10 52 -10 7 -10 9 0 9 8 0 12 16 12 45 0 29 -4 45
-12 45 -10 0 -10 2 -1 8 8 5 12 40 12 104 l0 97 -107 4 -107 3 107 2 107 2 -2
148 -2 147 -105 6 -105 5 107 2 107 2 0 100 0 99 -107 4 -107 3 107 2 107 2 0
150 -1 149 -106 4 -107 3 108 2 107 2 0 95 0 95 -105 0 c-63 0 -105 4 -105 10
0 6 42 10 105 10 l105 0 0 45 0 44 -107 4 -108 3 107 2 106 2 1 150 0 149
-107 4 -107 3 107 2 106 2 1 150 1 149 -108 4 -107 3 107 2 106 2 1 147 c0
103 -4 150 -12 155 -9 6 -9 8 0 8 9 0 12 28 12 100 l0 99 -107 4 -107 3 108 2
107 2 0 95 0 95 -105 0 c-63 0 -105 4 -105 10 0 6 42 10 105 10 l105 0 0 45 0
44 -107 4 -108 3 107 2 107 2 0 100 0 100 -298 0 c-164 0 -301 -3 -304 -7z
m425 -720 c-73 -2 -190 -2 -260 0 -70 1 -10 3 133 3 143 0 200 -2 127 -3z
m101 -100 c-23 -2 -64 -2 -90 0 -26 2 -7 3 42 3 50 0 71 -1 48 -3z m-5 -2180
c-21 -2 -57 -2 -80 0 -24 2 -7 4 37 4 44 0 63 -2 43 -4z m-5 -100 c-24 -2 -62
-2 -85 0 -24 2 -5 4 42 4 47 0 66 -2 43 -4z"/>
<path d="M7 2673 c-3 -5 -5 -50 -6 -100 l0 -92 107 -4 107 -3 -107 -2 -107 -2
0 -95 0 -95 104 0 c63 0 105 -4 105 -10 0 -6 -42 -10 -105 -10 l-105 0 0 -45
0 -44 108 -4 107 -3 -107 -2 -107 -2 2 -97 2 -98 300 0 300 0 0 355 0 355
-297 3 c-163 1 -299 -1 -301 -5z"/>
<path d="M3320 1663 c0 -170 -2 -323 -6 -340 -4 -20 -2 -39 5 -47 9 -11 9 -15
-1 -18 -20 -7 -16 -285 6 -368 28 -108 92 -195 174 -239 13 -7 26 -10 29 -7 3
3 11 -1 17 -9 23 -30 202 -74 370 -91 60 -6 66 -5 67 12 0 18 1 18 8 -1 7 -17
34 -25 172 -50 90 -16 175 -30 189 -31 14 -1 32 -4 40 -7 19 -8 224 -46 271
-50 20 -2 40 -7 46 -10 5 -3 36 -10 69 -16 158 -26 311 -54 424 -76 69 -14
141 -27 160 -30 32 -5 355 -72 460 -96 102 -23 286 -46 296 -38 6 5 15 4 21
-2 12 -12 149 -26 325 -34 68 -3 134 -7 148 -9 14 -3 76 -8 138 -11 89 -5 112
-4 112 7 0 10 2 10 8 0 9 -14 199 -29 585 -48 114 -6 137 -5 137 7 1 11 3 10
10 -2 8 -14 37 -18 167 -23 203 -8 335 -15 451 -22 79 -5 93 -3 98 10 6 15 8
15 18 2 9 -13 64 -16 366 -18 l355 -3 5 280 5 280 3 -283 2 -283 208 4 c114 3
230 5 258 6 117 1 269 21 282 38 7 10 12 12 12 5 0 -17 50 -15 181 8 143 26
240 49 257 63 7 5 15 7 18 4 7 -7 151 38 242 75 76 32 83 42 57 88 -8 14 -14
30 -14 35 0 6 11 -11 25 -37 l24 -48 38 18 c116 54 303 168 357 218 15 13 29
24 33 24 14 0 227 196 230 210 1 8 -92 109 -207 225 l-210 209 -26 -24 c-14
-13 -25 -28 -25 -34 0 -6 21 -33 47 -61 l48 -50 -57 54 -58 55 -25 -24 c-14
-13 -25 -28 -25 -34 0 -6 21 -36 46 -66 l46 -55 -55 59 -55 59 -32 -31 c-17
-18 -35 -32 -38 -32 -4 0 -18 -9 -31 -19 l-24 -18 54 -79 c70 -102 71 -104 62
-104 -4 0 -33 38 -63 85 -30 47 -61 85 -68 85 -7 0 -24 -11 -37 -24 -13 -13
-26 -22 -29 -19 -5 5 -57 -26 -67 -40 -3 -5 -9 -8 -13 -7 -4 1 -20 -4 -37 -10
-20 -9 -28 -18 -24 -28 4 -12 3 -13 -9 -3 -12 10 -21 9 -48 -5 -18 -10 -35
-19 -38 -19 -44 -9 -70 -18 -70 -26 0 -6 -4 -8 -9 -4 -5 3 -29 -1 -53 -9 -24
-8 -58 -17 -75 -21 -18 -4 -33 -11 -33 -15 0 -5 9 -48 20 -96 11 -48 19 -92
17 -98 -2 -6 -15 36 -27 93 l-24 103 -35 -7 c-105 -20 -156 -28 -211 -33 -12
-1 -20 -9 -20 -19 -1 -17 -1 -17 -11 0 -8 14 -18 17 -42 11 -18 -4 -54 -8 -81
-9 -27 -2 -52 -9 -57 -16 -7 -11 -9 -12 -9 -1 0 10 -17 12 -77 8 -43 -2 -84
-5 -90 -5 -10 -1 -13 -30 -14 -108 -1 -127 -5 -124 -14 10 l-7 97 -43 0 c-25
0 -45 -5 -48 -12 -4 -10 -6 -10 -6 0 -1 16 -88 16 -94 0 -4 -10 -6 -10 -6 0
-1 16 -88 16 -94 0 -4 -10 -6 -10 -6 0 -1 8 -17 12 -46 12 -29 0 -45 -4 -45
-12 0 -10 -2 -10 -8 -1 -5 7 -55 11 -154 12 l-148 1 -2 -107 -2 -108 -5 110
-6 110 -42 3 c-28 2 -43 -1 -43 -9 0 -9 -3 -9 -14 0 -8 7 -32 11 -53 9 l-38
-3 -6 -105 -5 -105 -2 108 -2 107 -45 0 c-29 0 -45 -4 -45 -12 0 -10 -2 -10
-9 0 -5 9 -24 13 -54 11 -26 -2 -49 0 -53 4 -12 12 -84 8 -84 -4 0 -8 -4 -8
-12 -2 -7 6 -52 13 -99 17 -102 8 -99 12 -99 -121 0 -46 -4 -83 -8 -83 -5 0
-7 47 -4 105 l5 105 -47 0 c-30 0 -46 -4 -46 -12 0 -9 -3 -8 -10 2 -6 10 -34
15 -104 17 l-96 4 -2 -48 -1 -48 -6 50 c-6 50 -6 50 -45 53 -24 2 -42 -2 -47
-10 -7 -11 -9 -11 -9 0 0 10 -14 13 -48 11 -26 -1 -53 1 -59 4 -7 4 -33 7 -60
6 -26 -1 -63 2 -82 6 -44 9 -50 -2 -52 -90 -1 -38 -5 -83 -10 -100 -4 -17 -5
18 -2 83 l6 114 -49 -2 c-27 -2 -56 1 -66 4 -9 4 -31 6 -50 4 -32 -3 -33 -5
-39 -53 l-6 -50 -1 51 c-2 51 -2 51 -39 57 -21 4 -42 2 -50 -5 -9 -7 -13 -7
-13 1 0 8 -19 12 -52 12 -29 -1 -70 2 -91 5 -22 4 -43 2 -51 -5 -10 -8 -15 -9
-18 -1 -2 6 -42 13 -94 16 l-91 6 -6 -69 c-4 -37 -7 -85 -7 -105 0 -21 -4 -38
-9 -38 -6 0 -8 15 -6 33 2 17 6 65 9 104 5 70 4 73 -19 79 -47 12 -70 1 -76
-36 l-6 -35 -2 38 c-1 41 7 39 -121 41 -36 0 -67 4 -70 7 -3 3 -22 9 -42 13
-28 5 -38 3 -38 -6 0 -11 -2 -11 -8 0 -13 20 -82 28 -93 11 -7 -11 -9 -11 -9
4 0 11 -9 18 -27 19 -41 2 -56 5 -73 11 -8 3 -27 8 -43 11 -32 8 -38 -2 -57
-109 -12 -69 -30 -118 -29 -85 0 8 8 56 19 105 10 50 15 93 11 97 -3 4 -25 9
-47 11 -23 2 -46 7 -53 11 -6 4 -29 9 -50 11 -21 1 -43 5 -47 8 -5 3 -26 8
-48 12 -28 6 -41 4 -47 -6 -7 -11 -9 -11 -9 3 0 17 -48 33 -81 27 -8 -1 -27 3
-44 10 -16 7 -42 11 -57 8 -16 -2 -28 -1 -28 3 0 9 -169 42 -180 35 -4 -3 -16
-50 -25 -105 -10 -54 -21 -97 -25 -95 -4 3 1 48 12 101 13 62 16 100 10 106
-5 5 -28 11 -50 12 -22 2 -45 6 -51 10 -6 4 -30 8 -53 10 -24 2 -50 6 -58 9
-46 17 -71 17 -77 1 -6 -15 -7 -15 -14 3 -8 22 -75 37 -86 20 -3 -5 -9 -4 -13
3 -11 17 -76 30 -89 17 -8 -8 -11 -8 -11 1 0 6 -17 14 -37 17 -21 4 -62 11
-91 17 -28 6 -55 8 -58 5 -4 -3 -14 -49 -24 -102 -10 -53 -21 -99 -25 -103 -4
-4 -5 7 -2 23 19 105 30 185 26 189 -3 3 -23 8 -46 12 -35 5 -42 3 -46 -12 -4
-17 -5 -16 -6 2 -1 17 -10 23 -43 28 -28 5 -44 3 -46 -4 -3 -7 -8 -6 -16 4 -6
8 -32 18 -58 21 -40 6 -47 4 -51 -12 -4 -15 -5 -15 -6 -1 -1 19 -30 31 -69 27
-50 -5 -64 11 -63 77 0 32 2 68 3 79 3 16 -4 21 -37 26 l-40 6 43 2 42 1 0 55
0 55 -107 2 -108 2 105 5 105 6 2 92 c3 108 12 101 -127 106 -82 3 -81 3 22 5
l107 2 0 93 c-1 50 -5 98 -11 105 -7 8 -7 12 1 12 6 0 11 18 11 45 l0 45 -305
0 -305 0 0 -307z m458 -320 c-10 -2 -28 -2 -40 0 -13 2 -5 4 17 4 22 1 32 -1
23 -4z m-345 -80 c-13 -2 -35 -2 -50 0 -16 2 -5 4 22 4 28 0 40 -2 28 -4z
m154 -10 c-20 -2 -52 -2 -70 0 -17 2 0 4 38 4 39 0 53 -2 32 -4z m136 -10 c-7
-2 -21 -2 -30 0 -10 3 -4 5 12 5 17 0 24 -2 18 -5z m120 -10 c-7 -2 -21 -2
-30 0 -10 3 -4 5 12 5 17 0 24 -2 18 -5z m104 -145 c-3 -8 -6 -5 -6 6 -1 11 2
17 5 13 3 -3 4 -12 1 -19z m100 -45 c-3 -10 -5 -4 -5 12 0 17 2 24 5 18 2 -7
2 -21 0 -30z m-277 3 c0 -3 -15 -14 -32 -26 l-33 -22 30 26 c31 27 35 29 35
22z m167 -53 c-3 -10 -5 -2 -5 17 0 19 2 27 5 18 2 -10 2 -26 0 -35z m220 5
c-3 -7 -5 -2 -5 12 0 14 2 19 5 13 2 -7 2 -19 0 -25z m-120 -40 c-2 -13 -4 -5
-4 17 -1 22 1 32 4 23 2 -10 2 -28 0 -40z m540 20 c-3 -7 -5 -2 -5 12 0 14 2
19 5 13 2 -7 2 -19 0 -25z m-320 -15 c-3 -10 -5 -4 -5 12 0 17 2 24 5 18 2 -7
2 -21 0 -30z m420 -15 c-3 -7 -5 -2 -5 12 0 14 2 19 5 13 2 -7 2 -19 0 -25z
m-530 0 c-3 -8 -6 -5 -6 6 -1 11 2 17 5 13 3 -3 4 -12 1 -19z m6784 -5 c13
-16 12 -17 -3 -4 -10 7 -18 15 -18 17 0 8 8 3 21 -13z m-6154 -25 c-3 -7 -5
-2 -5 12 0 14 2 19 5 13 2 -7 2 -19 0 -25z m-530 0 c-3 -8 -6 -5 -6 6 -1 11 2
17 5 13 3 -3 4 -12 1 -19z m740 0 c-3 -8 -6 -5 -6 6 -1 11 2 17 5 13 3 -3 4
-12 1 -19z m-110 -30 c-3 -7 -5 -2 -5 12 0 14 2 19 5 13 2 -7 2 -19 0 -25z
m-850 -10 c-3 -7 -5 -2 -5 12 0 14 2 19 5 13 2 -7 2 -19 0 -25z m530 -5 c-3
-10 -5 -4 -5 12 0 17 2 24 5 18 2 -7 2 -21 0 -30z m6298 7 c10 -11 16 -20 13
-20 -3 0 -13 9 -23 20 -10 11 -16 20 -13 20 3 0 13 -9 23 -20z m-5878 -22 c-3
-7 -5 -2 -5 12 0 14 2 19 5 13 2 -7 2 -19 0 -25z m-320 -15 c-3 -10 -5 -4 -5
12 0 17 2 24 5 18 2 -7 2 -21 0 -30z m100 -30 c-3 -10 -5 -4 -5 12 0 17 2 24
5 18 2 -7 2 -21 0 -30z m530 15 c-3 -8 -6 -5 -6 6 -1 11 2 17 5 13 3 -3 4 -12
1 -19z m-1270 -35 c-3 -10 -5 -2 -5 17 0 19 2 27 5 18 2 -10 2 -26 0 -35z
m1480 5 c-3 -7 -5 -2 -5 12 0 14 2 19 5 13 2 -7 2 -19 0 -25z m-640 -10 c-3
-7 -5 -2 -5 12 0 14 2 19 5 13 2 -7 2 -19 0 -25z m530 0 c-3 -8 -6 -5 -6 6 -1
11 2 17 5 13 3 -3 4 -12 1 -19z m-110 -20 c-3 -7 -5 -2 -5 12 0 14 2 19 5 13
2 -7 2 -19 0 -25z m-530 0 c-3 -8 -6 -5 -6 6 -1 11 2 17 5 13 3 -3 4 -12 1
-19z m850 -10 c-3 -7 -5 -2 -5 12 0 14 2 19 5 13 2 -7 2 -19 0 -25z m-220 -20
c-3 -7 -5 -2 -5 12 0 14 2 19 5 13 2 -7 2 -19 0 -25z m320 0 c-3 -8 -6 -5 -6
6 -1 11 2 17 5 13 3 -3 4 -12 1 -19z m-1690 -20 c-3 -8 -6 -5 -6 6 -1 11 2 17
5 13 3 -3 4 -12 1 -19z m730 -10 c-3 -7 -5 -2 -5 12 0 14 2 19 5 13 2 -7 2
-19 0 -25z m530 10 c-3 -8 -6 -5 -6 6 -1 11 2 17 5 13 3 -3 4 -12 1 -19z m320
0 c-3 -8 -6 -5 -6 6 -1 11 2 17 5 13 3 -3 4 -12 1 -19z m-110 -20 c-3 -7 -5
-2 -5 12 0 14 2 19 5 13 2 -7 2 -19 0 -25z m5143 12 c6 -11 8 -20 6 -20 -3 0
-10 9 -16 20 -6 11 -8 20 -6 20 3 0 10 -9 16 -20z m-5043 -42 c-3 -7 -5 -2 -5
12 0 14 2 19 5 13 2 -7 2 -19 0 -25z m710 10 c-3 -8 -6 -5 -6 6 -1 11 2 17 5
13 3 -3 4 -12 1 -19z m-1560 -20 c-3 -8 -6 -5 -6 6 -1 11 2 17 5 13 3 -3 4
-12 1 -19z m740 0 c-3 -8 -6 -5 -6 6 -1 11 2 17 5 13 3 -3 4 -12 1 -19z m210
-20 c-3 -7 -5 -2 -5 12 0 14 2 19 5 13 2 -7 2 -19 0 -25z m1020 -15 c-3 -10
-5 -2 -5 17 0 19 2 27 5 18 2 -10 2 -26 0 -35z m-710 15 c-3 -8 -6 -5 -6 6 -1
11 2 17 5 13 3 -3 4 -12 1 -19z m200 0 c-3 -8 -6 -5 -6 6 -1 11 2 17 5 13 3
-3 4 -12 1 -19z m-2190 -20 c-3 -7 -5 -2 -5 12 0 14 2 19 5 13 2 -7 2 -19 0
-25z m2090 10 c-3 -8 -6 -5 -6 6 -1 11 2 17 5 13 3 -3 4 -12 1 -19z m-1370
-30 c-3 -7 -5 -2 -5 12 0 14 2 19 5 13 2 -7 2 -19 0 -25z m740 0 c-3 -7 -5 -2
-5 12 0 14 2 19 5 13 2 -7 2 -19 0 -25z m1340 -40 c-2 -13 -4 -3 -4 22 0 25 2
35 4 23 2 -13 2 -33 0 -45z m310 -5 c-2 -16 -4 -5 -4 22 0 28 2 40 4 28 2 -13
2 -35 0 -50z m620 -35 c-2 -18 -4 -6 -4 27 0 33 2 48 4 33 2 -15 2 -42 0 -60z
m-2280 40 c-3 -8 -6 -5 -6 6 -1 11 2 17 5 13 3 -3 4 -12 1 -19z m630 0 c-3 -8
-6 -5 -6 6 -1 11 2 17 5 13 3 -3 4 -12 1 -19z m1340 -40 c-2 -13 -4 -3 -4 22
0 25 2 35 4 23 2 -13 2 -33 0 -45z m930 -50 c-2 -24 -4 -7 -4 37 0 44 2 63 4
43 2 -21 2 -57 0 -80z m2142 57 c0 -5 -6 1 -14 15 -8 14 -14 30 -14 35 0 6 6
-1 14 -15 8 -14 14 -29 14 -35z m-5782 23 c-3 -8 -6 -5 -6 6 -1 11 2 17 5 13
3 -3 4 -12 1 -19z m1470 -10 c-3 -7 -5 -2 -5 12 0 14 2 19 5 13 2 -7 2 -19 0
-25z m100 0 c-3 -7 -5 -2 -5 12 0 14 2 19 5 13 2 -7 2 -19 0 -25z m1970 -5
c-3 -10 -5 -4 -5 12 0 17 2 24 5 18 2 -7 2 -21 0 -30z m720 -75 c-2 -24 -4 -7
-4 37 0 44 2 63 4 43 2 -21 2 -57 0 -80z m200 -21 c-2 -23 -3 -1 -3 48 0 50 1
68 3 42 2 -26 2 -67 0 -90z m100 51 c-2 -18 -4 -6 -4 27 0 33 2 48 4 33 2 -15
2 -42 0 -60z m300 45 c-3 -10 -5 -4 -5 12 0 17 2 24 5 18 2 -7 2 -21 0 -30z
m-3190 -5 c-3 -7 -5 -2 -5 12 0 14 2 19 5 13 2 -7 2 -19 0 -25z m520 -30 c-2
-13 -4 -3 -4 22 0 25 2 35 4 23 2 -13 2 -33 0 -45z m-210 15 c-3 -10 -5 -4 -5
12 0 17 2 24 5 18 2 -7 2 -21 0 -30z m1140 -55 c-2 -18 -4 -6 -4 27 0 33 2 48
4 33 2 -15 2 -42 0 -60z m-3130 30 c-3 -7 -5 -2 -5 12 0 14 2 19 5 13 2 -7 2
-19 0 -25z m2820 -20 c-2 -13 -4 -5 -4 17 -1 22 1 32 4 23 2 -10 2 -28 0 -40z
m620 -25 c-2 -16 -4 -5 -4 22 0 28 2 40 4 28 2 -13 2 -35 0 -50z m-1970 20
c-3 -10 -5 -4 -5 12 0 17 2 24 5 18 2 -7 2 -21 0 -30z m2380 -30 c-2 -16 -4
-5 -4 22 0 28 2 40 4 28 2 -13 2 -35 0 -50z m1982 2 c0 -5 -6 1 -14 15 -8 14
-14 30 -14 35 0 6 6 -1 14 -15 8 -14 14 -29 14 -35z m-2802 13 c-3 -7 -5 -2
-5 12 0 14 2 19 5 13 2 -7 2 -19 0 -25z m2050 0 c-3 -8 -6 -5 -6 6 -1 11 2 17
5 13 3 -3 4 -12 1 -19z m-200 -25 c-3 -10 -5 -4 -5 12 0 17 2 24 5 18 2 -7 2
-21 0 -30z m100 5 c-3 -7 -5 -2 -5 12 0 14 2 19 5 13 2 -7 2 -19 0 -25z
m-2060 -40 c-2 -13 -4 -3 -4 22 0 25 2 35 4 23 2 -13 2 -33 0 -45z m-730 -30
c-2 -13 -4 -3 -4 22 0 25 2 35 4 23 2 -13 2 -33 0 -45z m3682 -13 c0 -5 -8 6
-19 25 -11 19 -19 40 -19 45 0 6 8 -6 19 -25 11 -19 19 -39 19 -45z m-4412 28
c-3 -10 -5 -4 -5 12 0 17 2 24 5 18 2 -7 2 -21 0 -30z m3630 -25 c-2 -13 -4
-5 -4 17 -1 22 1 32 4 23 2 -10 2 -28 0 -40z m-3640 -55 c-3 -10 -5 -4 -5 12
0 17 2 24 5 18 2 -7 2 -21 0 -30z m2190 -95 c-2 -24 -4 -7 -4 37 0 44 2 63 4
43 2 -21 2 -57 0 -80z m1460 70 c-3 -7 -5 -2 -5 12 0 14 2 19 5 13 2 -7 2 -19
0 -25z m-2190 -55 c-2 -16 -4 -3 -4 27 0 30 2 43 4 28 2 -16 2 -40 0 -55z
m-1470 -5 c-2 -13 -4 -5 -4 17 -1 22 1 32 4 23 2 -10 2 -28 0 -40z m740 -20
c-2 -13 -4 -3 -4 22 0 25 2 35 4 23 2 -13 2 -33 0 -45z m2930 -10 c-2 -13 -4
-5 -4 17 -1 22 1 32 4 23 2 -10 2 -28 0 -40z m-2200 -20 c-3 -8 -6 -5 -6 6 -1
11 2 17 5 13 3 -3 4 -12 1 -19z m2210 -55 c-3 -10 -5 -4 -5 12 0 17 2 24 5 18
2 -7 2 -21 0 -30z"/>
<path d="M0 1905 c0 -29 4 -45 13 -45 9 0 9 -2 0 -8 -8 -5 -11 -50 -10 -152
l2 -145 110 -5 110 -6 -110 -4 -110 -5 -2 -97 -2 -97 107 -4 107 -3 -107 -2
-108 -2 0 -45 c0 -28 4 -45 12 -45 9 0 9 -3 0 -12 -16 -16 -16 -80 0 -96 9 -9
9 -12 0 -12 -8 0 -12 -18 -12 -49 0 -78 3 -82 69 -76 l56 5 -55 -13 c-55 -12
-55 -12 -52 -47 5 -64 71 -240 90 -240 4 0 45 21 91 45 46 25 89 44 95 42 6
-2 -29 -25 -78 -51 -48 -27 -90 -54 -93 -62 -5 -13 47 -97 68 -109 5 -4 43 21
84 54 40 34 77 61 81 61 4 0 -12 -17 -37 -38 -24 -20 -60 -51 -79 -69 l-35
-32 45 -45 c24 -25 49 -46 56 -46 6 0 39 34 73 75 34 41 65 75 68 75 6 0 -3
-13 -75 -98 -29 -35 -50 -68 -46 -73 11 -19 87 -69 104 -69 10 0 41 45 89 130
40 71 75 130 77 130 3 0 3 -3 1 -7 -64 -113 -137 -254 -137 -265 0 -15 87 -58
116 -58 7 0 26 41 44 96 18 52 34 94 36 92 2 -3 -10 -46 -27 -97 -17 -52 -27
-97 -22 -102 5 -5 35 -14 67 -20 69 -14 71 -13 81 75 3 34 10 77 15 96 6 24 7
15 2 -30 -4 -36 -7 -85 -7 -110 l0 -45 110 0 110 0 6 105 5 105 2 -107 2 -107
97 0 c64 0 100 5 105 12 6 9 8 9 8 0 0 -9 16 -13 45 -13 29 0 45 4 45 13 0 9
2 9 8 0 10 -16 194 -16 204 0 6 9 8 9 8 0 0 -9 28 -12 95 -12 l95 0 0 104 c0
58 3 105 8 105 4 0 7 -46 7 -102 l0 -103 47 -3 47 -3 4 108 3 108 2 -107 2
-107 97 0 c64 0 100 5 105 12 6 9 8 9 8 0 0 -17 87 -17 93 0 4 9 6 9 6 0 1
-15 106 -18 115 -4 3 4 2 51 -3 102 -5 52 -7 96 -6 98 4 4 10 -34 22 -134 l8
-70 44 3 c24 2 56 9 70 15 14 6 33 11 41 12 37 1 120 38 120 52 0 8 -18 54
-40 101 -22 47 -38 87 -36 90 4 4 68 -113 88 -161 4 -9 15 -17 24 -17 17 0
114 57 114 68 0 3 -17 28 -38 56 -100 134 -110 161 -13 36 34 -44 65 -80 69
-80 4 0 30 21 57 46 l50 46 -80 74 c-44 41 -77 74 -73 74 4 0 40 -29 80 -65
39 -36 75 -65 79 -65 13 0 79 86 79 103 0 9 -47 45 -115 87 -63 40 -115 74
-115 77 0 5 16 -4 153 -89 43 -26 84 -48 91 -48 6 0 24 25 40 57 33 67 32 68
-74 108 -41 15 -79 32 -85 37 -5 5 22 -3 60 -17 123 -47 126 -48 136 -38 12
12 35 120 27 128 -3 3 -45 13 -94 22 -49 9 -84 18 -77 20 6 2 46 -3 89 -11 56
-10 83 -11 91 -4 10 8 12 42 11 122 l-3 111 -105 6 -105 5 107 2 107 2 0 150
0 150 -302 -2 -302 -3 -2 -229 c-2 -265 -7 -290 -79 -356 -65 -60 -96 -70
-219 -70 -71 0 -105 -4 -105 -11 0 -8 -4 -8 -13 0 -18 14 -703 15 -712 0 -5
-7 -11 -6 -20 1 -8 7 -93 10 -246 10 -160 -1 -245 3 -269 11 -73 25 -139 95
-161 171 -5 19 -9 220 -9 476 l0 442 -305 0 -305 0 0 -45z m210 -895 c-8 -5
-31 -9 -50 -8 l-35 1 40 7 c59 11 61 11 45 0z m2430 -186 c0 -2 -9 0 -20 6
-11 6 -20 13 -20 16 0 2 9 0 20 -6 11 -6 20 -13 20 -16z m-1333 -416 c-1 -73
-3 -14 -3 132 0 146 2 205 3 133 2 -73 2 -193 0 -265z m730 0 c-1 -73 -3 -14
-3 132 0 146 2 205 3 133 2 -73 2 -193 0 -265z m-830 -91 c-2 -23 -3 -1 -3 48
0 50 1 68 3 42 2 -26 2 -67 0 -90z m310 0 c-2 -23 -3 -1 -3 48 0 50 1 68 3 42
2 -26 2 -67 0 -90z m620 0 c-2 -23 -3 -1 -3 48 0 50 1 68 3 42 2 -26 2 -67 0
-90z"/>
</g>
</svg>
