<?xml version="1.0" standalone="no"?>
<!DOCTYPE svg PUBLIC "-//W3C//DTD SVG 20010904//EN"
 "http://www.w3.org/TR/2001/REC-SVG-20010904/DTD/svg10.dtd">
<svg version="1.0" xmlns="http://www.w3.org/2000/svg"
 width="1167.000000pt" height="1280.000000pt" viewBox="0 0 1167.000000 1280.000000"
 preserveAspectRatio="xMidYMid meet">
<metadata>
Created by potrace 1.15, written by Peter Selinger 2001-2017
</metadata>
<g transform="translate(0.000000,1280.000000) scale(0.100000,-0.100000)"
fill="#000000" stroke="none">
<path d="M9270 12789 c-229 -29 -473 -124 -657 -256 -272 -194 -468 -494 -539
-825 -25 -114 -25 -369 -1 -491 94 -472 445 -861 918 -1021 167 -56 260 -70
459 -70 199 0 292 14 459 70 400 135 727 449 864 829 50 141 70 257 71 425 1
176 -11 259 -59 406 -165 505 -614 864 -1166 934 -96 12 -254 11 -349 -1z"/>
<path d="M5145 10889 c-80 -12 -193 -69 -252 -127 -42 -41 -1667 -2180 -1780
-2342 -24 -35 -54 -97 -69 -143 -23 -69 -27 -100 -27 -197 -1 -103 2 -124 29
-200 70 -200 212 -329 394 -362 128 -22 284 28 378 123 27 27 397 512 823
1078 l774 1030 443 0 443 1 -19 -27 c-11 -16 -769 -1026 -1684 -2246 l-1664
-2219 -1215 -1 -1214 -2 -68 -27 c-93 -38 -164 -87 -239 -166 -323 -343 -232
-974 171 -1186 134 -70 29 -66 1631 -66 1549 0 1541 0 1705 51 124 38 264 118
331 190 18 19 321 405 674 859 354 454 648 831 655 838 10 11 162 -154 768
-832 417 -465 757 -852 757 -860 0 -9 -140 -728 -311 -1598 -223 -1137 -312
-1611 -316 -1681 -21 -363 196 -688 508 -762 302 -71 612 129 718 465 11 36
180 886 376 1890 195 1004 376 1926 401 2049 40 196 45 239 46 355 0 197 -40
357 -124 486 -27 42 -731 859 -1325 1537 l-55 62 728 968 c400 532 728 969
729 971 1 1 211 -240 467 -535 256 -296 489 -560 517 -586 63 -59 178 -115
260 -127 144 -20 301 37 430 156 98 91 1610 1844 1649 1912 57 100 77 181 76
317 0 87 -5 137 -18 180 -49 163 -154 293 -292 361 -77 39 -79 39 -193 39
-104 -1 -122 -3 -174 -27 -32 -15 -77 -41 -100 -58 -24 -17 -328 -358 -677
-760 -349 -401 -638 -728 -641 -727 -4 1 -354 402 -780 891 -440 506 -796 907
-827 931 -30 24 -80 55 -111 71 -127 62 -38 58 -1401 60 -685 1 -1272 -2
-1305 -7z"/>
</g>
</svg>
